<svg id="Calque_2" data-name="Calque 2" xmlns="http://www.w3.org/2000/svg" viewBox="0 0 343.49 131.05"><defs><style>.cls-1{fill:none}.cls-1,.cls-2,.cls-3{stroke-width:0}.cls-3{fill:#fb0}</style></defs><g id="Calque_1-2" data-name="Calque 1"><path class="cls-3" d="M63.01 112.57l25.8-11.73 12.48-82.36-38.28 14.84v79.25zm-6.21 0l-25.81-11.73-12.47-82.36L56.8 33.32v79.25z"/><path class="cls-2" d="M118.64 43.73l9.42-25.23h5.9l9.45 25.23h-5.24l-2-5.41h-10.4l-2 5.41h-5.13zm15.89-9.81l-3.58-9.7-3.55 9.7h7.13zm22.11-8.68h4.92v18.48h-4.92v-1.9c-1.27 1.51-2.99 2.28-4.99 2.28-3.8 0-6.29-2.6-6.29-6.64V25.23h4.92v11.14c0 2.21 1.02 3.37 2.95 3.37s3.41-1.51 3.41-3.66V25.22zm10.04 13.67v-9.56h-2.46v-4.11h2.46v-5.27h4.85v5.27h3.76v4.11h-3.76v8.54c0 1.3.49 1.79 2.32 1.79.56 0 .84 0 1.69-.11v4.08c-.95.18-2 .28-3.16.28-4.04 0-5.69-1.51-5.69-5.03zm28.83-4.42c0 2.71-.84 5.13-2.42 6.85-1.65 1.83-3.97 2.78-6.64 2.78s-4.99-.95-6.64-2.78c-1.58-1.72-2.42-4.15-2.42-6.85s.84-5.13 2.42-6.85c1.65-1.79 3.97-2.74 6.64-2.74s4.99.95 6.64 2.74c1.58 1.72 2.42 4.15 2.42 6.85zm-13.25 0c0 3.48 1.55 5.55 4.18 5.55s4.15-2.07 4.15-5.55-1.58-5.52-4.15-5.52-4.18 2.11-4.18 5.52zm27.7-9.28v4.81c-.67-.11-1.05-.11-1.58-.11-2.71 0-4.53 1.72-4.53 4.43v9.38h-4.92V25.24h4.92v2.6c.84-1.69 2.71-2.71 4.92-2.71.32 0 .63.04 1.19.07zm7.72-2.15h-5.03v-4.57h5.03v4.57zm-4.96 2.18h4.92v18.48h-4.92V25.24zm9.92 13.67v-9.56h-2.46v-4.11h2.46v-5.27h4.85v5.27h3.76v4.11h-3.76v8.54c0 1.3.49 1.79 2.32 1.79.56 0 .84 0 1.69-.11v4.08c-.95.18-2 .28-3.16.28-4.04 0-5.69-1.51-5.69-5.03zm13.16 2.46c-1.58-1.72-2.46-4.11-2.46-6.89s.88-5.03 2.46-6.75c1.65-1.83 3.97-2.85 6.54-2.85s4.64.84 6.15 2.53c1.51 1.72 2.28 3.94 2.28 6.71v1.44h-12.72c.32 2.81 2.07 4.5 4.5 4.5 1.97 0 3.41-.98 3.97-2.71l4.15 1.48c-1.3 3.27-4.36 5.27-8.15 5.27-2.71 0-5.06-.95-6.71-2.74zm2.42-9.13h7.66c-.04-2.07-1.44-3.41-3.58-3.41-2 0-3.51 1.19-4.08 3.41zm6.05-8.65h-3.87l2-5.1h5.9l-4.04 5.1zM119.9 75.54c-1.3-1.72-2-4.08-2-6.64s.7-4.92 2-6.61c1.44-1.97 3.55-2.99 6.04-2.99 2.14 0 4.01.81 5.17 2.25v-8.64h4.92v25.23h-4.92v-1.9c-1.16 1.44-3.02 2.28-5.17 2.28-2.5 0-4.6-1.05-6.04-2.99zm11.32-7.13c0-2.99-1.62-4.88-4.11-4.88-2.67 0-4.25 2.04-4.25 5.38s1.58 5.41 4.25 5.41c2.5 0 4.11-1.9 4.11-4.88v-1.02zm10.63 7.38c-1.58-1.72-2.46-4.11-2.46-6.89s.88-5.03 2.46-6.75c1.65-1.83 3.97-2.85 6.54-2.85s4.64.84 6.15 2.53c1.51 1.72 2.28 3.94 2.28 6.71v1.44H144.1c.32 2.81 2.07 4.5 4.5 4.5 1.97 0 3.41-.98 3.97-2.71l4.15 1.48c-1.3 3.27-4.36 5.27-8.15 5.27-2.71 0-5.06-.95-6.71-2.74zm2.42-9.14h7.66c-.04-2.07-1.44-3.41-3.58-3.41-2 0-3.51 1.19-4.08 3.41zm14.24 8.37l3.06-3.13c1.27 1.69 3.48 2.81 5.59 2.81 1.93 0 3.09-.74 3.09-1.9 0-.84-.46-1.3-1.76-1.62-.18-.04-.35-.11-.6-.14-.25-.04-.88-.18-1.97-.39-2.39-.46-3.44-.88-4.32-1.44-1.3-.84-1.97-2.11-1.97-3.9s.7-3.23 2.11-4.36c1.41-1.09 3.23-1.65 5.45-1.65 3.13 0 6.11 1.27 7.63 3.2l-2.81 3.09c-1.23-1.58-3.02-2.46-4.96-2.46-1.55 0-2.57.67-2.57 1.69 0 .7.39 1.09 1.37 1.37.39.14.63.21 2.14.49 2.85.6 3.8.95 4.74 1.48 1.55.88 2.32 2.25 2.32 4.11s-.74 3.34-2.25 4.5c-1.51 1.16-3.44 1.76-5.76 1.76-3.55 0-6.96-1.37-8.54-3.51zm32.86-7.56v10.68h-4.92V59.66h4.92v1.9c1.16-1.44 2.95-2.25 5.02-2.25s3.97.88 4.99 2.53c1.69-1.72 3.51-2.53 5.73-2.53 3.79 0 6.25 2.6 6.25 6.64v12.19h-4.92V67.35c0-2.35-.98-3.55-2.81-3.55s-3.27 1.51-3.27 3.66v10.68h-4.92V67.35c0-2.35-.98-3.55-2.81-3.55s-3.27 1.51-3.27 3.66zm41.32 6.15c0 1.83.11 3.3.28 4.53h-4.74c-.04-.7-.07-1.09-.07-1.48-1.23 1.16-3.02 1.79-5.24 1.79-1.86 0-3.37-.53-4.53-1.55-1.19-1.02-1.79-2.32-1.79-3.9 0-3.2 2.14-5.09 6.68-5.9l4.6-.88v-.81c0-1.41-.88-2.07-2.74-2.07s-2.85.74-2.95 2.28h-4.78c.18-4.04 3.09-6.33 7.98-6.33s7.31 1.97 7.31 5.48v8.82zm-4.81-2.04v-1.9l-3.58.7c-2.07.39-2.85 1.09-2.85 2.32s.91 2 2.42 2c2.35 0 4.01-1.27 4.01-3.13zm20.13-11.95v4.81c-.67-.11-1.05-.11-1.58-.11-2.71 0-4.53 1.72-4.53 4.43v9.38h-4.92V59.65h4.92v2.6c.84-1.69 2.71-2.71 4.92-2.71.32 0 .63.04 1.19.07zm6.76 9.28c0 3.41 1.65 5.48 4.32 5.48 1.86 0 3.2-1.2 3.73-3.3l4.25 1.9c-.95 3.34-4.04 5.55-8.01 5.55-2.67 0-5.03-.95-6.68-2.78-1.65-1.72-2.5-4.15-2.5-6.85s.84-5.13 2.5-6.85c1.65-1.79 4.01-2.74 6.68-2.74 3.94 0 6.96 2.18 7.94 5.45l-4.18 1.97c-.53-2.11-1.86-3.3-3.73-3.3-2.67 0-4.32 2.11-4.32 5.48zm20.06 9.24h-4.92V52.91h4.92v8.64c1.23-1.44 2.99-2.25 5.06-2.25 3.79 0 6.22 2.57 6.22 6.64v12.19h-4.92V67.34c0-2.28-1.02-3.55-2.95-3.55s-3.41 1.44-3.41 3.66v10.68zm16.96-2.35c-1.58-1.72-2.46-4.11-2.46-6.89s.88-5.03 2.46-6.75c1.65-1.83 3.97-2.85 6.54-2.85s4.64.84 6.15 2.53c1.51 1.72 2.28 3.94 2.28 6.71v1.44h-12.72c.32 2.81 2.07 4.5 4.5 4.5 1.97 0 3.41-.98 3.97-2.71l4.15 1.48c-1.3 3.27-4.36 5.27-8.15 5.27-2.71 0-5.06-.95-6.71-2.74zm2.43-9.14h7.66c-.04-2.07-1.44-3.41-3.58-3.41-2 0-3.51 1.19-4.08 3.41zm6.04-8.64h-3.87l2-5.1h5.9l-4.04 5.1zm8.2 17.01l3.06-3.13c1.26 1.69 3.48 2.81 5.59 2.81 1.93 0 3.09-.74 3.09-1.9 0-.84-.46-1.3-1.76-1.62-.17-.04-.35-.11-.6-.14s-.88-.18-1.97-.39c-2.39-.46-3.44-.88-4.32-1.44-1.3-.84-1.97-2.11-1.97-3.9s.7-3.23 2.11-4.36c1.41-1.09 3.23-1.65 5.45-1.65 3.13 0 6.11 1.27 7.63 3.2l-2.81 3.09c-1.23-1.58-3.02-2.46-4.96-2.46-1.55 0-2.57.67-2.57 1.69 0 .7.39 1.09 1.37 1.37.39.14.63.21 2.14.49 2.85.6 3.79.95 4.74 1.48 1.55.88 2.32 2.25 2.32 4.11s-.74 3.34-2.25 4.5c-1.51 1.16-3.44 1.76-5.76 1.76-3.55 0-6.96-1.37-8.54-3.51zM129.54 87.05v4.04c-.32-.04-.53-.04-1.27-.04-1.72 0-2.35.63-2.35 2.28v.74h3.58v4.11h-3.58v14.37H121V98.18h-2.5v-4.11h2.5v-1.02c0-4.04 2.25-6.08 6.64-6.08.98 0 1.34.04 1.9.07zm7.52 4.85h-5.03v-4.57h5.03v4.57zm-4.96 2.18h4.92v18.48h-4.92V94.08zm14.19 18.48h-4.92V94.08h4.92v1.9c1.23-1.44 2.99-2.25 5.06-2.25 3.8 0 6.22 2.57 6.22 6.64v12.19h-4.92v-10.79c0-2.28-1.02-3.55-2.95-3.55s-3.41 1.44-3.41 3.66v10.68zm30.55-4.53c0 1.83.11 3.3.28 4.53h-4.74c-.04-.7-.07-1.09-.07-1.48-1.23 1.16-3.02 1.79-5.24 1.79-1.86 0-3.37-.53-4.53-1.55-1.19-1.02-1.79-2.32-1.79-3.9 0-3.2 2.14-5.09 6.68-5.9l4.6-.88v-.81c0-1.41-.88-2.07-2.74-2.07s-2.85.74-2.95 2.28h-4.78c.18-4.04 3.09-6.33 7.98-6.33s7.31 1.97 7.31 5.48v8.82zm-4.81-2.04v-1.9l-3.58.7c-2.07.39-2.85 1.09-2.85 2.32s.91 2 2.42 2c2.35 0 4.01-1.27 4.01-3.13zm14.02 6.57h-4.92V94.08h4.92v1.9c1.23-1.44 2.99-2.25 5.06-2.25 3.8 0 6.22 2.57 6.22 6.64v12.19h-4.92v-10.79c0-2.28-1.02-3.55-2.95-3.55s-3.41 1.44-3.41 3.66v10.68zm19.38-9.24c0 3.41 1.65 5.48 4.32 5.48 1.86 0 3.2-1.2 3.73-3.3l4.25 1.9c-.95 3.34-4.04 5.55-8.01 5.55-2.67 0-5.03-.95-6.68-2.78-1.65-1.72-2.5-4.15-2.5-6.85s.84-5.13 2.5-6.85c1.65-1.79 4.01-2.74 6.68-2.74 3.94 0 6.96 2.18 7.94 5.45l-4.18 1.97c-.53-2.11-1.86-3.3-3.73-3.3-2.67 0-4.32 2.11-4.32 5.48zm20.14-11.42h-5.03v-4.57h5.03v4.57zm-4.96 2.18h4.92v18.48h-4.92V94.08zm10.7 16.12c-1.58-1.72-2.46-4.11-2.46-6.89s.88-5.03 2.46-6.75c1.65-1.83 3.97-2.85 6.54-2.85s4.64.84 6.15 2.53c1.51 1.72 2.28 3.94 2.28 6.71v1.44h-12.72c.32 2.81 2.07 4.5 4.5 4.5 1.97 0 3.41-.98 3.97-2.71l4.15 1.48c-1.3 3.27-4.36 5.27-8.15 5.27-2.71 0-5.06-.95-6.71-2.74zm2.43-9.13h7.66c-.04-2.07-1.44-3.41-3.58-3.41-2 0-3.51 1.19-4.08 3.41zm27.01-7.03v4.81c-.67-.11-1.05-.11-1.58-.11-2.71 0-4.53 1.72-4.53 4.43v9.38h-4.92V94.07h4.92v2.6c.84-1.69 2.71-2.71 4.92-2.71.32 0 .63.04 1.19.07zm1.3 15.39l3.06-3.13c1.27 1.69 3.48 2.81 5.59 2.81 1.93 0 3.09-.74 3.09-1.9 0-.84-.46-1.3-1.76-1.62-.18-.04-.35-.11-.6-.14-.25-.04-.88-.18-1.97-.39-2.39-.46-3.44-.88-4.32-1.44-1.3-.84-1.97-2.11-1.97-3.9s.7-3.23 2.11-4.36c1.41-1.09 3.23-1.65 5.45-1.65 3.13 0 6.11 1.27 7.63 3.2l-2.81 3.09c-1.23-1.58-3.02-2.46-4.96-2.46-1.55 0-2.56.67-2.56 1.69 0 .7.39 1.09 1.37 1.37.39.14.63.21 2.14.49 2.85.6 3.8.95 4.74 1.48 1.55.88 2.32 2.25 2.32 4.11s-.74 3.34-2.25 4.5c-1.51 1.16-3.44 1.76-5.76 1.76-3.55 0-6.96-1.37-8.54-3.51z"/><path class="cls-1" d="M0 0h343.49v131.05H0z"/></g></svg>